<svg id="圖層_1" data-name="圖層 1" xmlns="http://www.w3.org/2000/svg" width="260" height="60" viewBox="0 0 260 60">
  <defs>
    <style>
      .cls-1 {
        fill: #fff;
      }

      .cls-2 {
        fill: #00aaea;
      }

      .cls-3 {
        fill: #3e3a39;
      }
    </style>
  </defs>
  <title>工作區域 1</title>
  <g>
    <g>
      <rect class="cls-1" x="0.59" width="60" height="60"/>
      <path class="cls-2" d="M.59,0V60h60V0ZM60.21,59.62H45.59V45H60.21Zm0-29.62A30,30,0,0,0,30.6,59.62h-15A45,45,0,0,1,60.21,15Z"/>
    </g>
    <g>
      <rect class="cls-3" x="83.06" y="34.95" width="1.44" height="9.49"/>
      <path class="cls-3" d="M90.94,44.44V40.33c0-1.06-.6-1.51-1.36-1.51a1.35,1.35,0,0,0-1.4,1.51v4.11H86.82V37.69h1.33v.68a2.41,2.41,0,0,1,1.8-.76,2.33,2.33,0,0,1,1.67.61,2.49,2.49,0,0,1,.68,1.91v4.31H90.94"/>
      <path class="cls-3" d="M96.84,38.82c-1.22,0-1.41,1-1.41,2.24s.19,2.25,1.41,2.25,1.4-1.05,1.4-2.25-.17-2.24-1.4-2.24m1.43,5.62v-.72a2.07,2.07,0,0,1-1.79.8,2.3,2.3,0,0,1-1.65-.6,4,4,0,0,1-.76-2.86,4,4,0,0,1,.76-2.85,2.27,2.27,0,0,1,1.64-.6,2.07,2.07,0,0,1,1.77.76V35H99.6v9.49Z"/>
      <path class="cls-3" d="M105.84,44.44v-.67a2.44,2.44,0,0,1-1.8.75,2.36,2.36,0,0,1-1.67-.61,2.52,2.52,0,0,1-.67-1.9V37.69h1.36V41.8c0,1.06.59,1.51,1.35,1.51a1.35,1.35,0,0,0,1.4-1.51V37.69h1.36v6.75h-1.33"/>
      <path class="cls-3" d="M111.52,44.52a3.7,3.7,0,0,1-2.84-1l.89-.89a2.63,2.63,0,0,0,2,.7c.82,0,1.48-.29,1.48-.93,0-.45-.26-.74-.91-.8L111,41.54c-1.26-.11-2-.68-2-1.87s1.14-2.06,2.55-2.06a3.67,3.67,0,0,1,2.5.76l-.85.86a2.55,2.55,0,0,0-1.67-.49c-.81,0-1.22.36-1.22.87s.21.7.93.77l1.07.09c1.26.11,2,.71,2,1.91,0,1.41-1.2,2.14-2.81,2.14"/>
      <path class="cls-3" d="M117.86,44.44A1.75,1.75,0,0,1,116,42.57V38.84h-.77v-1H116V35.75h1.36v2.06h1.31v1h-1.31V42.5a.68.68,0,0,0,.75.78h.56v1.16h-.82"/>
      <path class="cls-3" d="M124.13,39.27a1.29,1.29,0,0,0-1-.45,1.39,1.39,0,0,0-1.34,1.52v4.1h-1.36V37.69h1.33v.73a2.25,2.25,0,0,1,1.8-.81,2.07,2.07,0,0,1,1.61.64l-1,1"/>
      <path class="cls-3" d="M126.26,44.44V37.69h1.36v6.75h-1.36m1.4-8.09h-1.44V34.91h1.44Z"/>
      <path class="cls-3" d="M133.39,41.46H131.8c-.79,0-1.21.36-1.21,1s.39,1,1.24,1A1.64,1.64,0,0,0,133.1,43a1.38,1.38,0,0,0,.29-1v-.55m0,3v-.61a2.24,2.24,0,0,1-1.8.69,2.39,2.39,0,0,1-1.81-.61,2.06,2.06,0,0,1-.54-1.45c0-1.13.79-2,2.33-2h1.79V40c0-.85-.43-1.26-1.48-1.26a1.58,1.58,0,0,0-1.48.65l-.89-.84a2.75,2.75,0,0,1,2.42-1c1.86,0,2.79.78,2.79,2.31v4.52Z"/>
      <path class="cls-3" d="M138.66,44.44a1.72,1.72,0,0,1-1.86-1.86V35h1.36V42.5c0,.52.19.78.73.78h.61v1.16h-.84"/>
      <polyline class="cls-3" points="147.03 36.25 147.03 44.44 145.59 44.44 145.59 36.25 142.97 36.25 142.97 34.95 149.64 34.95 149.64 36.25 147.03 36.25"/>
      <path class="cls-3" d="M153.82,39.59a1.39,1.39,0,0,0-1.33-.85,1.43,1.43,0,0,0-1.35.85,2.16,2.16,0,0,0-.17.92h3a2,2,0,0,0-.19-.92M151,41.46a1.66,1.66,0,0,0,1.72,1.89,2,2,0,0,0,1.64-.69l.86.81a3.16,3.16,0,0,1-2.53,1.05c-1.69,0-3-.89-3-3.46,0-2.19,1.14-3.45,2.87-3.45s2.87,1.33,2.87,3.25v.6Z"/>
      <path class="cls-3" d="M159.82,44.52c-1.52,0-3-.93-3-3.46s1.49-3.45,3-3.45a2.78,2.78,0,0,1,2.23.94l-.94.91a1.55,1.55,0,0,0-1.29-.64,1.5,1.5,0,0,0-1.25.6,2.45,2.45,0,0,0-.4,1.64,2.5,2.5,0,0,0,.4,1.65,1.5,1.5,0,0,0,1.25.6,1.55,1.55,0,0,0,1.29-.64l.94.89a2.77,2.77,0,0,1-2.23,1"/>
      <path class="cls-3" d="M167.71,44.44V40.3a1.3,1.3,0,0,0-1.36-1.48A1.32,1.32,0,0,0,165,40.3v4.14h-1.36V35H165v3.42a2.3,2.3,0,0,1,1.74-.76,2.24,2.24,0,0,1,2.35,2.48v4.35h-1.36"/>
      <path class="cls-3" d="M175.28,44.44V40.33c0-1.06-.6-1.51-1.36-1.51a1.35,1.35,0,0,0-1.4,1.51v4.11h-1.36V37.69h1.34v.68a2.39,2.39,0,0,1,1.79-.76,2.33,2.33,0,0,1,1.67.61,2.49,2.49,0,0,1,.68,1.91v4.31h-1.36"/>
      <path class="cls-3" d="M182.22,39.21a1.45,1.45,0,0,0-2,0,2.62,2.62,0,0,0-.47,1.85,2.62,2.62,0,0,0,.47,1.85,1.43,1.43,0,0,0,2,0,2.58,2.58,0,0,0,.47-1.85,2.58,2.58,0,0,0-.47-1.85m1,4.51a3,3,0,0,1-4,0,3.53,3.53,0,0,1-.8-2.66,3.52,3.52,0,0,1,.8-2.65,3,3,0,0,1,4,0,3.52,3.52,0,0,1,.8,2.65A3.53,3.53,0,0,1,183.25,43.72Z"/>
      <path class="cls-3" d="M187.7,44.44a1.72,1.72,0,0,1-1.85-1.86V35h1.36V42.5c0,.52.19.78.73.78h.6v1.16h-.84"/>
      <path class="cls-3" d="M193.26,39.21a1.46,1.46,0,0,0-2,0,2.62,2.62,0,0,0-.46,1.85,2.62,2.62,0,0,0,.46,1.85,1.44,1.44,0,0,0,2,0,2.62,2.62,0,0,0,.47-1.85,2.62,2.62,0,0,0-.47-1.85m1,4.51a2.72,2.72,0,0,1-2,.8,2.67,2.67,0,0,1-2-.8,3.53,3.53,0,0,1-.8-2.66,3.52,3.52,0,0,1,.8-2.65,2.67,2.67,0,0,1,2-.8,2.72,2.72,0,0,1,2,.8,3.52,3.52,0,0,1,.8,2.65A3.53,3.53,0,0,1,194.29,43.72Z"/>
      <path class="cls-3" d="M199.35,38.82c-1.22,0-1.38,1-1.38,2.12s.16,2.12,1.38,2.12,1.37-1.05,1.37-2.12-.14-2.12-1.37-2.12m-.16,8.44a3.09,3.09,0,0,1-2.38-.9l.86-.86a1.91,1.91,0,0,0,1.47.6,1.52,1.52,0,0,0,1.58-1.72v-.87a2.06,2.06,0,0,1-1.74.77,2.23,2.23,0,0,1-1.61-.59,3.66,3.66,0,0,1-.76-2.75,3.65,3.65,0,0,1,.76-2.75,2.25,2.25,0,0,1,1.62-.58,2,2,0,0,1,1.77.8v-.72h1.33V44.4A2.72,2.72,0,0,1,199.19,47.26Z"/>
      <path class="cls-3" d="M206.36,45.79a2.17,2.17,0,0,1-.49.84,1.89,1.89,0,0,1-1.39.49h-.54V45.9h.34c.58,0,.78-.18,1-.72l.37-1.06-2.36-6.43h1.44l1.61,4.76,1.58-4.76h1.45l-3,8.1"/>
      <path class="cls-3" d="M86.64,51H84.5v3h2.14a1.49,1.49,0,1,0,0-3m1.66,8.2-2-4H84.5v4H83.06V49.71h3.68a2.72,2.72,0,0,1,3,2.77A2.49,2.49,0,0,1,87.79,55L90,59.2Z"/>
      <path class="cls-3" d="M95.48,54.35a1.38,1.38,0,0,0-1.33-.85,1.39,1.39,0,0,0-1.34.85,2,2,0,0,0-.18.92h3a2,2,0,0,0-.19-.92m-2.85,1.87a1.66,1.66,0,0,0,1.72,1.89A2,2,0,0,0,96,57.42l.87.81a3.2,3.2,0,0,1-2.54,1.05c-1.69,0-3-.89-3-3.46,0-2.19,1.13-3.46,2.86-3.46S97,53.7,97,55.62v.6Z"/>
      <path class="cls-3" d="M101,59.28a3.75,3.75,0,0,1-2.84-1l.9-.89a2.6,2.6,0,0,0,1.94.7c.83,0,1.48-.29,1.48-.93,0-.45-.25-.75-.9-.8l-1.08-.09c-1.27-.11-2-.68-2-1.87s1.13-2.07,2.54-2.07a3.71,3.71,0,0,1,2.51.76l-.85.87A2.57,2.57,0,0,0,101,53.5c-.82,0-1.23.36-1.23.86s.22.71.93.78l1.07.09c1.27.1,2,.71,2,1.91,0,1.41-1.2,2.14-2.81,2.14"/>
      <path class="cls-3" d="M109.32,54.35A1.38,1.38,0,0,0,108,53.5a1.41,1.41,0,0,0-1.35.85,2.16,2.16,0,0,0-.17.92h3a2.31,2.31,0,0,0-.19-.92m-2.85,1.87a1.66,1.66,0,0,0,1.72,1.89,2,2,0,0,0,1.64-.69l.86.81a3.16,3.16,0,0,1-2.53,1.05c-1.69,0-3-.89-3-3.46,0-2.19,1.13-3.46,2.87-3.46s2.86,1.34,2.86,3.26v.6Z"/>
      <path class="cls-3" d="M116.26,56.22h-1.58c-.8,0-1.22.35-1.22,1s.39,1,1.24,1a1.61,1.61,0,0,0,1.27-.39,1.36,1.36,0,0,0,.29-1v-.54m0,3v-.61a2.23,2.23,0,0,1-1.8.69,2.39,2.39,0,0,1-1.81-.61,2.07,2.07,0,0,1-.54-1.46c0-1.13.79-1.94,2.34-1.94h1.78v-.48c0-.85-.42-1.27-1.48-1.27a1.6,1.6,0,0,0-1.48.66l-.89-.84a2.77,2.77,0,0,1,2.43-1c1.85,0,2.78.79,2.78,2.32V59.2Z"/>
      <path class="cls-3" d="M123.43,54a1.22,1.22,0,0,0-1-.45,1.39,1.39,0,0,0-1.35,1.52v4.1h-1.35V52.44h1.33v.74a2.24,2.24,0,0,1,1.8-.82,2.12,2.12,0,0,1,1.61.64l-1,1"/>
      <path class="cls-3" d="M127.82,59.28c-1.52,0-3-.93-3-3.46s1.49-3.46,3-3.46a2.8,2.8,0,0,1,2.23,1l-.94.91a1.55,1.55,0,0,0-1.29-.64,1.5,1.5,0,0,0-1.25.6,2.45,2.45,0,0,0-.4,1.64,2.52,2.52,0,0,0,.4,1.65,1.53,1.53,0,0,0,1.25.6,1.58,1.58,0,0,0,1.29-.64l.94.89a2.81,2.81,0,0,1-2.23,1"/>
      <path class="cls-3" d="M135.71,59.2V55.06a1.37,1.37,0,1,0-2.73,0V59.2h-1.36V49.71H133v3.41a2.33,2.33,0,0,1,1.74-.76,2.25,2.25,0,0,1,2.35,2.48V59.2h-1.36"/>
      <rect class="cls-3" x="141.99" y="49.71" width="1.44" height="9.49"/>
      <path class="cls-3" d="M149.86,59.2V55.08c0-1-.59-1.5-1.36-1.5a1.34,1.34,0,0,0-1.39,1.5V59.2h-1.36V52.44h1.33v.68a2.43,2.43,0,0,1,1.8-.76,2.32,2.32,0,0,1,1.66.62,2.42,2.42,0,0,1,.68,1.9V59.2h-1.36"/>
      <path class="cls-3" d="M155.5,59.28a3.75,3.75,0,0,1-2.84-1l.9-.89a2.59,2.59,0,0,0,1.94.7c.83,0,1.48-.29,1.48-.93,0-.45-.25-.75-.9-.8L155,56.3c-1.27-.11-2-.68-2-1.87s1.13-2.07,2.54-2.07a3.69,3.69,0,0,1,2.51.76l-.86.87a2.52,2.52,0,0,0-1.66-.49c-.81,0-1.23.36-1.23.86s.22.71.94.78l1.06.09c1.27.1,2,.71,2,1.91,0,1.41-1.19,2.14-2.81,2.14"/>
      <path class="cls-3" d="M161.85,59.2A1.76,1.76,0,0,1,160,57.32V53.6h-.77v-1H160V50.51h1.36v2.05h1.31v1h-1.31v3.65c0,.5.24.79.75.79h.56V59.2h-.81"/>
      <path class="cls-3" d="M164.39,59.2V52.44h1.36V59.2h-1.36m1.4-8.09h-1.44V49.67h1.44Z"/>
      <path class="cls-3" d="M169.92,59.2a1.76,1.76,0,0,1-1.85-1.88V53.6h-.77v-1h.77V50.51h1.36v2.05h1.31v1h-1.31v3.65c0,.5.24.79.75.79h.56V59.2h-.82"/>
      <path class="cls-3" d="M176.55,59.2v-.68a2.41,2.41,0,0,1-1.8.76,2.39,2.39,0,0,1-1.67-.61,2.49,2.49,0,0,1-.68-1.91V52.44h1.36v4.12a1.32,1.32,0,0,0,1.36,1.51,1.35,1.35,0,0,0,1.4-1.51V52.44h1.36V59.2h-1.33"/>
      <path class="cls-3" d="M182.05,59.2a1.76,1.76,0,0,1-1.85-1.88V53.6h-.77v-1h.77V50.51h1.36v2.05h1.31v1h-1.31v3.65c0,.5.24.79.75.79h.56V59.2h-.82"/>
      <path class="cls-3" d="M188.41,54.35a1.38,1.38,0,0,0-1.33-.85,1.42,1.42,0,0,0-1.35.85,2.16,2.16,0,0,0-.17.92h3a2.31,2.31,0,0,0-.19-.92m-2.85,1.87a1.66,1.66,0,0,0,1.72,1.89,2,2,0,0,0,1.64-.69l.86.81a3.16,3.16,0,0,1-2.53,1.05c-1.69,0-3-.89-3-3.46,0-2.19,1.14-3.46,2.87-3.46s2.86,1.34,2.86,3.26v.6Z"/>
      <path class="cls-3" d="M256.91,20.64a20.29,20.29,0,0,1-.19,3.13c-.15.43-.29.56-1.16.56s-1.1-.08-1.1-.48V17.18h2a16.49,16.49,0,0,1,2.41.15V14.74a16.1,16.1,0,0,1-2.41.12h-9a16.31,16.31,0,0,1-2.25-.12V17.3a15.42,15.42,0,0,1,2.43-.12h.33a8,8,0,0,1-1.68,4.94,8.54,8.54,0,0,1-4.39,3,7.07,7.07,0,0,1,1.61,2.05A11.37,11.37,0,0,0,248.62,23a12,12,0,0,0,1.82-5.85h1.5V24.9c0,1.42.85,1.89,3.54,1.87,3.23,0,3.85-.5,3.93-5.34a7.9,7.9,0,0,1-2.5-.79m-12.17-2a10.05,10.05,0,0,0-.57-3.17,12.57,12.57,0,0,0-1.55-2.89c1.23-2.89,1.28-2.89,2-4.81v2c0,.49,0,1.22-.05,1.42s0,.29,0,.44h2.31v1.27a14.25,14.25,0,0,1,2-.1h5.81a14.79,14.79,0,0,1,2,.1V11.71h2.37a12.29,12.29,0,0,1-.1-1.82v-2a10.42,10.42,0,0,1,.1-1.8,14.17,14.17,0,0,1-2.22.13h-3.88V5.55a8.22,8.22,0,0,1,.12-1.72h-3a9.39,9.39,0,0,1,.13,1.64v.76h-3.17c-.72,0-1.31,0-1.77,0l0-.08L244,4.81a6.44,6.44,0,0,1-1.51.1h-3.77A14.12,14.12,0,0,1,237,4.83c0,.77.08,1.45.08,2.27V24.22a22.92,22.92,0,0,1-.16,2.87h2.8a19.83,19.83,0,0,1-.13-2.82v-17h2.47a36.92,36.92,0,0,1-2.1,5.58A12.92,12.92,0,0,1,241.4,15a6.92,6.92,0,0,1,.9,3c0,.88-.18,1.07-1,1.07A8.07,8.07,0,0,1,240,19a5,5,0,0,1,.62,2.62,9,9,0,0,0,2.45-.27C244.19,21,244.74,20.11,244.74,18.65Zm2.36-10h9.13v1.84a14.54,14.54,0,0,1-1.65,0h-5.81c-.87,0-1.27,0-1.67,0Zm-92,8a13.11,13.11,0,0,0,1.11-1.83l-1.37-1.51a10.79,10.79,0,0,1-1.79.1h-2.46V9.9h3.37a24.87,24.87,0,0,1,2.84.15V7.28a22.73,22.73,0,0,1-2.84.15h-3.37V6.7a18.8,18.8,0,0,1,.12-2.58h-3a14.51,14.51,0,0,1,.15,2.6v.71h-2.46a24.55,24.55,0,0,1-2.83-.13V10c.72-.07,1.71-.12,2.86-.12h2.43v3.43h-2.55a19.14,19.14,0,0,1-2.51-.15v2.64c.45-.05.59-.05,1-.07a17.7,17.7,0,0,0,3.64,5.6,21.17,21.17,0,0,1-6.78,3.34A11.25,11.25,0,0,1,142,27.06a21.85,21.85,0,0,0,7.23-3.93,24.56,24.56,0,0,0,6.73,4,8.09,8.09,0,0,1,1.54-2.6,20.5,20.5,0,0,1-6.39-3.14A36.78,36.78,0,0,0,155.07,16.57Zm-5.77,3.09a14,14,0,0,1-2.76-3.94h6.13A18.61,18.61,0,0,1,149.3,19.66Zm16.8-.59a20.94,20.94,0,0,1-1.25,4.25,21.07,21.07,0,0,1,2.24,1.16,40,40,0,0,0,1.77-11.07l-2.27-.33A47.79,47.79,0,0,1,166.1,19.07ZM175,13l-2.17.54a56.94,56.94,0,0,1,1.62,9.18l2.27-.72A73.45,73.45,0,0,0,175,13Zm55.83,10.47c-.18.5-.06.57-1.9.57-.9,0-1.12-.15-1.1-.79l.08-4.61c0-1.16,0-1.58.1-2.24a20.44,20.44,0,0,1-2.62.1h-3.58c0-.33,0-.85.07-1.23a10.09,10.09,0,0,1,.22-2h-3a8.41,8.41,0,0,1,.11,1.42,13.83,13.83,0,0,1-.09,1.82H214.8a19.51,19.51,0,0,1-2.73-.14v2.74a18.18,18.18,0,0,1,2.79-.13h3.73c-.41,1.81-3.37,4.73-7.77,5.8a7.56,7.56,0,0,1,1.56,2.25,16.6,16.6,0,0,0,6-3.35,9.28,9.28,0,0,0,3-4.7h3.82l-.07,5.07v.18c0,1.82.74,2.29,3.79,2.29,4.65,0,4.41-.17,4.81-6.08a9.83,9.83,0,0,1-2.62-.85A18.37,18.37,0,0,1,230.78,23.51ZM194.19,12.79a12.13,12.13,0,0,1-1.5.07h-3A17.89,17.89,0,0,0,191,7.49h1.3a20.53,20.53,0,0,1,2.33.1V4.91a12.78,12.78,0,0,1-2.4.15h-4.35a16.44,16.44,0,0,1-2.42-.15v2.7a14.21,14.21,0,0,1,2.25-.13h.86a14.84,14.84,0,0,1-4.55,9.26,16.22,16.22,0,0,1,.82,3.16,22.79,22.79,0,0,0,2.21-2.8c-.05,1.35,0,1.29,0,2.27v4.37a18.25,18.25,0,0,1-.15,2.54h2.64V24h2.23v1.14h2.43a15.86,15.86,0,0,1-.08-1.94V14.6A12.26,12.26,0,0,1,194.19,12.79Zm-2.4,9h-2.26V15.21h2.26ZM177,11a14.19,14.19,0,0,1-1.6-.11c0-.24,0-.46,0-.57,0-.27,0-1.32,0-1.32a11.18,11.18,0,0,1-2,.1h-1.15V6.87a17.11,17.11,0,0,1,.15-2.72h-2.81a17.26,17.26,0,0,1,.15,2.72V9.05h-1.31a14.87,14.87,0,0,1-2.26-.12v1.7l-.31-.19-1.74-1a14.84,14.84,0,0,1-1,2,19.08,19.08,0,0,1-4,4.44,12.45,12.45,0,0,1,1,2.58,12.67,12.67,0,0,0,1.66-1.69v7.41A19.35,19.35,0,0,1,161.6,27h2.77a19.89,19.89,0,0,1-.13-2.82V14.23a21.75,21.75,0,0,0,1.9-3.11v.53a9.21,9.21,0,0,1,1.62-.11h2V24a21,21,0,0,1-.15,3h2.81a20.17,20.17,0,0,1-.15-3V11.54h1.13c.55,0,1.61,0,2.06.05l0,2a9.53,9.53,0,0,1,1.59-.1h1.11V23.7c0,.45-.18.57-.8.57a20.71,20.71,0,0,1-2.94-.22,7.94,7.94,0,0,1,.58,2.61c1.22.06,1.51.06,2,.06a9.2,9.2,0,0,0,2.52-.25c.82-.33,1.14-1,1.14-2.32V13.48a15.85,15.85,0,0,1,2.17.1V10.82a10.85,10.85,0,0,1-2,.13Zm34.22.28h2.71V8.41H218a4,4,0,0,1-1.37,2.81c-.92.79-1.86,1.19-4.84,1.74a12.42,12.42,0,0,1,1.49,2.28c3.15-.75,4.92-1.7,6.07-3.3a9.22,9.22,0,0,0,1.41-3.53h1.93v4c0,1.44.73,1.84,3.31,1.84,2.39,0,3.3-.1,3.87-.35.72-.33,1-.67,1.22-2.06l.11-.63h1.86a13.94,13.94,0,0,1-.1-1.84V7.72a13.21,13.21,0,0,1,.1-1.85,23.23,23.23,0,0,1-2.74.12h-7V5.46a7,7,0,0,1,.12-1.57h-3a7.15,7.15,0,0,1,.15,1.57V6H214a22.93,22.93,0,0,1-2.74-.12,13.7,13.7,0,0,1,.1,1.85V9.43A12.47,12.47,0,0,1,211.23,11.23Zm14-2.82h5.12v1.66l0,.65a12.32,12.32,0,0,1-1.65-.43,3.12,3.12,0,0,1-.18,1.19c-.17.32-.45.45-1.67.45-1.37,0-1.57-.07-1.57-.63Zm-19.81,4.9V7.41a17.55,17.55,0,0,1,2.58.12V4.81a19.79,19.79,0,0,1-2.67.15h-7.2a16.94,16.94,0,0,1-2.74-.15V7.53a14.86,14.86,0,0,1,2.17-.12v5.9a17.83,17.83,0,0,1-2.62-.12V16a17,17,0,0,1,2.58-.13,20.71,20.71,0,0,1-.43,3.94,12.52,12.52,0,0,1-2.89,5.73,6,6,0,0,1,2.21,1.73c1.66-2.1,3.51-5.22,3.66-11.4h2.8v8.24a28.79,28.79,0,0,1-.15,3h2.88a25.33,25.33,0,0,1-.18-3V15.85h.2a16.79,16.79,0,0,1,2.63.13V13.19a17.66,17.66,0,0,1-2.63.12Zm-2.55,0h-2.75V7.41h2.75ZM176,7.69l.21-.1V8.2a12.6,12.6,0,0,1,1.94-.13h2.29a11.83,11.83,0,0,1,1.94.13V5.41a10,10,0,0,1-1.94.12h-2.29a10.72,10.72,0,0,1-1.94-.12V7.32L176.08,7a28.44,28.44,0,0,0-1.71-2.67L172.48,5.4a16,16,0,0,1,1.82,3.22ZM122.81,21h5a27.07,27.07,0,0,1,3,.15V18.62a24.3,24.3,0,0,1-3,.14h-7V17.41H126a18.16,18.16,0,0,1,2.57.13V15.29a18,18,0,0,1-2.57.13h-5.21V14.09h6.5a18.3,18.3,0,0,1,2.57.12V11.84a24,24,0,0,1-2.57.1h-2.88a16.14,16.14,0,0,0,.92-1.67h2.49a29.37,29.37,0,0,1,3,.13V7.91a20.49,20.49,0,0,1-2.82.14h-.69c.54-.77.9-1.53,1.49-2.52l-2.56-1a13.64,13.64,0,0,1-1.75,3.47h-1.57V6.11a13.75,13.75,0,0,1,.12-1.94h-2.71A17.77,17.77,0,0,1,120.41,6v2h-1.77V6a16.24,16.24,0,0,1,.08-1.84H116a16.72,16.72,0,0,1,.11,1.94V8.05h-1.41a18.65,18.65,0,0,0-1.88-3.39l-2.49.94A10.29,10.29,0,0,1,112,8.05h-.8a21.3,21.3,0,0,1-2.84-.14V10.4a29.66,29.66,0,0,1,3-.13H114a17.85,17.85,0,0,1,.92,1.67h-3a23.71,23.71,0,0,1-2.56-.1v2.37a18.49,18.49,0,0,1,2.56-.12h6.23v1.33h-4.93a17.44,17.44,0,0,1-2.54-.13v2.25a17.7,17.7,0,0,1,2.54-.13h4.93v1.35h-6.6a25.37,25.37,0,0,1-3-.14v2.49a27.45,27.45,0,0,1,3-.15h4.63c-1.83,1.54-4.87,2.66-8.35,3.29a10.36,10.36,0,0,1,1.52,2.39,24.2,24.2,0,0,0,5.09-2.09,23.6,23.6,0,0,0,3.79-2.85c0,.55,0,1.85,0,1.85l0,1.15a18.55,18.55,0,0,1-.15,2.54H121a13.76,13.76,0,0,1-.17-2.52l0-1.17s0-1.37-.05-1.93a20.62,20.62,0,0,0,9.24,5,10.23,10.23,0,0,1,1.42-2.53,24.91,24.91,0,0,1-5.2-1.4A15.72,15.72,0,0,1,122.81,21Zm-5.24-9a14,14,0,0,0-.74-1.67h5.67a11.65,11.65,0,0,1-.82,1.67Zm24.61,2.31-2.09.7V11.07h.37a11.23,11.23,0,0,1,1.53.1V8.55a9.3,9.3,0,0,1-1.5.1h-.4V6.7a16.17,16.17,0,0,1,.15-2.6h-3a19,19,0,0,1,.15,2.62V8.65h-1a11.05,11.05,0,0,1-1.95-.14V11.2a14.55,14.55,0,0,1,1.92-.13h1.05v4.82a17.65,17.65,0,0,1-3.12.8l.55,2.7c.27-.13.7-.25,1-.37a5.85,5.85,0,0,0,.84-.28,5.58,5.58,0,0,0,.68-.21v5.24c0,.68-.15.78-1,.78a13.34,13.34,0,0,1-2-.2,8,8,0,0,1,.6,2.59c.77,0,1.16.07,1.76.07,2.64,0,3.29-.47,3.29-2.46V17.47c.8-.32.8-.25,2.09-.75Zm24.19-9L164.14,4a14,14,0,0,1-4.79,4.53,8.68,8.68,0,0,1,1.13,2.35A17.37,17.37,0,0,0,166.37,5.26ZM95,22.83V9.68h5.48a29.64,29.64,0,0,1,3.2.15V6.89A27.54,27.54,0,0,1,100.5,7H87.1a26.3,26.3,0,0,1-3.24-.15V9.83a28.68,28.68,0,0,1,3.21-.15h5V22.83H85.88a25.32,25.32,0,0,1-3.44-.17v3a28.84,28.84,0,0,1,3.39-.17h15.89a27.23,27.23,0,0,1,3.4.17v-3a25.15,25.15,0,0,1-3.4.17Z"/>
    </g>
  </g>
</svg>
